<?xml version="1.0" encoding="UTF-8" standalone="no"?>
<!-- Created with Inkscape (http://www.inkscape.org/) -->

<svg
   xmlns:dc="http://purl.org/dc/elements/1.1/"
   xmlns:cc="http://creativecommons.org/ns#"
   xmlns:rdf="http://www.w3.org/1999/02/22-rdf-syntax-ns#"
   xmlns:svg="http://www.w3.org/2000/svg"
   xmlns="http://www.w3.org/2000/svg"
   xmlns:sodipodi="http://sodipodi.sourceforge.net/DTD/sodipodi-0.dtd"
   xmlns:inkscape="http://www.inkscape.org/namespaces/inkscape"
   width="501"
   height="721"
   id="svg2"
   version="1.1"
   inkscape:version="0.91 r13725"
   sodipodi:docname="PATKA nr 18.svg">
  <defs
     id="defs4" />
  <sodipodi:namedview
     id="base"
     pagecolor="#ffffff"
     bordercolor="#666666"
     borderopacity="1.0"
     inkscape:pageopacity="0.0"
     inkscape:pageshadow="2"
     inkscape:zoom="0.61580177"
     inkscape:cx="475.25787"
     inkscape:cy="355.70035"
     inkscape:document-units="px"
     inkscape:current-layer="layer1"
     showgrid="false"
     inkscape:window-width="1366"
     inkscape:window-height="705"
     inkscape:window-x="-8"
     inkscape:window-y="-8"
     inkscape:window-maximized="1"
     fit-margin-top="0"
     fit-margin-left="0"
     fit-margin-right="0"
     fit-margin-bottom="0" />
  <metadata
     id="metadata7">
    <rdf:RDF>
      <cc:Work
         rdf:about="">
        <dc:format>image/svg+xml</dc:format>
        <dc:type
           rdf:resource="http://purl.org/dc/dcmitype/StillImage" />
        <dc:title />
      </cc:Work>
    </rdf:RDF>
  </metadata>
  <g
     inkscape:label="Layer 1"
     inkscape:groupmode="layer"
     id="layer1"
     transform="translate(697.19104,98.750542)">
    <path
       style="fill:#004639;fill-opacity:1;stroke:none"
       d="m -596.84101,-98.250543 300.3,0 99.99998,469.999723 -250.15001,250.00028 -250.15001,-250.00028 z"
       id="rect2996"
       inkscape:connector-curvature="0"
       sodipodi:nodetypes="cccccc" />
    <path
       inkscape:connector-curvature="0"
       id="path3818"
       d="m -580.65978,-78.250817 -94.375,443.531097 228.3438,228.2188 228.3437,-228.2188 -94.375,-443.531097 m 0,0 -267.9375,0 m 239.5313,44 79.125,386.624897 -184.6875,184.5625 -184.6875,-184.5625 79.125,-386.624897"
       style="font-size:medium;font-style:normal;font-variant:normal;font-weight:normal;font-stretch:normal;text-indent:0;text-align:start;text-decoration:none;line-height:normal;letter-spacing:normal;word-spacing:normal;text-transform:none;direction:ltr;block-progression:tb;writing-mode:lr-tb;text-anchor:start;baseline-shift:baseline;color:#000000;fill:#e6e6e6;fill-opacity:1;stroke:none;stroke-width:120;marker:none;visibility:visible;display:inline;overflow:visible;enable-background:accumulate;font-family:Sans;-inkscape-font-specification:Sans"
       sodipodi:nodetypes="cccccccccccc" />
    <path
       inkscape:connector-curvature="0"
       style="opacity:1;fill:#e6e6e6;fill-opacity:1;stroke:none;stroke-width:5;stroke-linecap:square;stroke-linejoin:miter;stroke-miterlimit:4;stroke-dasharray:none;stroke-dashoffset:0;stroke-opacity:1"
       d="m -340.65066,251.37754 c 6.25627,0.1407 8.99781,15.72448 3.79106,30.12347 -3.64102,10.06901 -0.79184,12.66713 10.18802,9.29734 7.24086,-2.22228 9.05357,-2.04156 12.30689,1.21176 3.53287,3.53236 3.5427,4.27249 0.15935,9.99934 -4.46965,7.56533 -23.71226,22.68817 -30.01751,23.59088 -2.85275,0.40839 -4.6024,2.35147 -4.6024,5.11215 0,3.50812 2.13193,4.81854 10.03902,6.16845 5.52121,0.94239 11.61795,3.33368 13.54865,5.31406 3.18602,3.26773 2.81578,4.18909 -4.01297,9.9595 -7.59345,6.41663 -28.40907,13.62155 -39.34809,13.62155 -8.33902,0 -9.63028,3.649 -2.24144,6.33391 3.41404,1.24057 8.24054,3.87835 10.7244,5.86381 4.46508,3.56813 4.46508,3.65136 0.13222,6.99946 -3.03955,2.34874 -9.79879,3.38725 -22.05126,3.38725 l -17.67096,0 7.29747,6.51936 c 6.30272,5.63157 6.88808,7.01641 4.27793,10.16141 l 0,0 c -3.33164,4.0143 -13.39082,4.46406 -23.92197,1.06951 -3.72595,-1.20056 -13.03652,-1.6698 -20.69373,-1.03968 -10.95206,0.90136 -14.55714,0.38397 -16.89284,-2.43029 -2.55896,-3.08346 -1.49672,-4.91245 7.69484,-13.23419 10.45926,-9.46941 10.91714,-9.6335 23.667,-8.53567 7.15033,0.61571 15.47037,0.17664 18.48874,-0.9768 4.18842,-1.60063 1.83442,-2.04971 -9.93966,-1.89714 -8.49822,0.1102 -15.73891,-0.81574 -16.12135,-2.05953 -0.38194,-1.2421 3.39386,-5.08876 8.39006,-8.54891 8.6067,-5.96044 9.96628,-6.20879 25.90199,-4.76462 15.69499,1.42213 17.12069,1.17769 21.30961,-3.65204 6.11506,-7.05065 5.66734,-8.64027 -0.73828,-2.62236 -5.63275,5.2915 -13.13433,6.04334 -27.3721,2.74154 -8.01744,-1.85934 -9.70776,-1.40909 -17.2602,4.57254 -4.60511,3.6473 -8.77487,6.62872 -9.26429,6.62872 -0.48942,0 -6.44037,5.21556 -13.22418,11.58845 -13.37235,12.56254 -17.28529,11.19007 -10.26737,-3.59915 1.96868,-4.14841 3.57916,-10.75711 3.57916,-14.68752 0,-14.29778 7.2439,-19.6532 16.80333,-12.42285 9.83033,7.43531 19.32636,1.35382 19.32636,-12.37657 0,-10.65709 3.53947,-13.7675 14.87975,-13.07517 l 8.8337,0.53959 0.66555,-17.95881 c 0.36735,-9.8771 1.76168,-19.2743 3.09906,-20.88579 3.09633,-3.73071 13.64629,-3.79479 17.38615,-0.10509 3.85361,3.80106 9.33363,-3.47878 9.33363,-12.39979 0,-7.24544 4.68003,-17.48991 10.01256,-21.91549 1.37161,-1.13835 2.64897,-1.642 3.80767,-1.61572 z m -221.91338,19.56792 c 7.53359,0.017 18.84343,9.19919 22.3624,18.15766 4.06076,10.33788 6.2093,10.97343 12.03871,3.56253 5.92653,-7.53429 12.63441,-8.77588 17.75029,-3.28452 3.29384,3.53542 4.3815,8.86473 4.99315,24.46512 0.43008,10.97004 1.5552,20.71747 2.49979,21.66052 0.94475,0.94307 3.77816,-0.49754 6.29745,-3.20179 9.63962,-10.34686 19.15904,-3.01598 17.23054,13.26725 -1.6832,14.21167 1.3811,17.04695 11.59506,10.7344 7.58788,-4.68953 7.92031,-4.70953 10.89663,-0.63911 3.39437,4.64207 3.78767,8.56602 3.11229,31.15333 -0.57317,19.17362 2.03377,22.51492 22.33607,28.61692 8.18493,2.45995 17.84675,6.86248 21.46845,9.78404 9.62368,7.76334 4.24961,8.48873 -8.9761,1.21176 -6.9074,-3.80072 -18.06985,-7.29222 -28.22956,-8.83031 -9.24139,-1.39925 -19.05239,-3.97752 -21.80309,-5.73142 -6.48138,-4.13264 -12.92243,-4.05449 -16.45224,0.19869 -4.36117,5.25489 -11.01208,4.14603 -12.57865,-2.09582 -1.80339,-7.18491 -6.15675,-8.62587 -13.88295,-4.59579 -13.31573,6.94572 -18.94001,2.99481 -11.9826,-8.4165 2.5064,-4.11111 4.56594,-9.19411 4.56594,-11.29721 0.017,-5.9774 -9.04848,-10.85086 -20.25348,-10.89324 -8.87124,-0.0322 -11.37103,-1.20396 -18.90246,-8.84692 -10.32663,-10.4796 -9.79333,-15.89689 2.12244,-21.55135 5.92756,-2.8129 7.77536,-4.98518 7.25442,-8.51923 -0.56096,-3.80377 -3.22688,-5.24353 -13.47254,-7.28086 -7.02605,-1.39738 -14.499,-3.97075 -16.60467,-5.7182 -3.56271,-2.95683 -3.47933,-3.45828 1.17212,-7.22458 2.74892,-2.22602 7.934,-4.04941 11.5223,-4.04941 5.01898,0 6.52266,-1.04189 6.52266,-4.5161 0,-2.48403 -0.90601,-4.51628 -2.01312,-4.51628 -1.10721,0 -3.61379,-4.00499 -5.57247,-8.89998 -4.13921,-10.34483 -1.42409,-22.72056 4.98322,-22.7036 z m 214.58285,12.33351 c -1.20311,-0.27208 -1.57318,1.61997 -1.10258,5.66191 0.59859,5.14047 -1.08393,9.4211 -6.47631,16.48549 -4.00617,5.24827 -8.00727,11.83019 -8.89337,14.62461 -0.88609,2.79443 -2.70085,5.0791 -4.03279,5.0791 -1.33178,0 -3.86904,1.77999 -5.63547,3.95345 -3.39963,4.18299 -3.41234,4.58273 0.83779,-20.88919 0.84642,-5.07316 0.54621,-5.94247 -1.19192,-3.45997 -1.27668,1.82322 -3.01294,9.95205 -3.85734,18.06476 -0.8444,8.11255 -2.4603,16.5304 -3.59255,18.70386 -1.32533,2.54438 -1.22683,3.95006 0.2782,3.95006 1.28566,0 2.37621,-1.2687 2.42028,-2.82103 0.20869,-7.25391 10.29127,-14.61784 23.5346,-17.18731 13.01228,-2.52437 22.17299,-7.08896 14.22743,-7.08896 -2.03801,0 -4.26097,0.90118 -4.94008,1.99987 -0.67911,1.09884 -4.29454,2.44402 -8.03575,2.99311 -9.14817,1.34262 -9.1124,-4.46186 0.0932,-14.94587 7.28035,-8.29191 11.17227,-22.25572 6.93316,-24.87554 -0.2058,-0.12714 -0.3943,-0.20936 -0.56603,-0.24835 z m -199.5609,27.17343 10.16132,10.95952 10.16158,10.95936 -7.90336,-1.49995 c -5.82601,-1.10512 -7.01319,-0.87915 -4.51627,0.86101 1.86289,1.29821 5.95603,2.37842 9.09527,2.39706 5.50442,0.0339 13.48576,6.75076 13.48576,11.3501 0,1.22787 0.50806,2.23161 1.12902,2.23161 2.45267,0 0.94204,-6.64023 -2.23482,-9.8171 -2.2211,-2.2211 -2.91428,-5.64242 -2.03293,-10.04884 0.73489,-3.67409 0.13562,-8.9227 -1.3311,-11.66475 -3.68544,-6.88638 -5.35999,-4.30606 -1.99647,3.07601 2.09548,4.60035 2.11124,6.61667 0.0729,8.65502 -2.03835,2.03852 -5.15385,0.31378 -13.37303,-7.4002 l -10.7177,-10.05885 z m 209.0137,1.12902 c -1.31534,0 -2.39384,1.0163 -2.39384,2.25822 0,1.2421 0.44906,2.25806 0.99663,2.25806 0.54772,0 1.62301,-1.01596 2.39061,-2.25806 0.76761,-1.24192 0.32193,-2.25822 -0.9934,-2.25822 z m -198.91528,31.61681 c -2.10802,0 -2.0831,0.79846 0.1085,3.44014 3.33486,4.01838 3.20112,4.19316 -5.69158,7.46632 -6.58709,2.42469 -6.53538,2.45707 1.81102,1.16547 6.75042,-1.04477 9.2831,-0.42517 11.86003,2.89716 3.06651,3.95329 3.18602,3.95956 1.84102,0.11188 -1.28346,-3.6712 -0.50195,-3.94446 7.33054,-2.55929 4.82396,0.85304 10.23633,2.93326 12.02549,4.62206 5.00552,4.72513 5.53222,1.97918 1.06952,-5.57581 -2.21195,-3.74442 -4.96212,-6.22794 -6.10878,-5.51934 -1.14666,0.70878 -0.70505,2.26213 0.98001,3.45337 2.08548,1.47451 0.63181,1.74558 -4.55594,0.84762 -4.19164,-0.72557 -9.40805,-1.31771 -11.59185,-1.31771 -2.18379,0 -4.50237,-2.03242 -5.15199,-4.51628 -0.64961,-2.48402 -2.41638,-4.51627 -3.92683,-4.51627 z m 149.87603,2.53963 c -2.97446,-0.41432 -16.58159,6.52801 -16.58159,8.7013 0,1.34245 3.99533,0.13901 8.88015,-2.67203 4.88464,-2.81138 8.55194,-5.44018 8.14848,-5.84381 -0.0967,-0.0967 -0.24869,-0.15766 -0.44704,-0.18546 z m -99.56858,8.75758 c -0.93153,0 -1.88137,3.66951 -2.11243,8.13848 -0.53027,10.25448 -1.90138,11.58523 -7.08558,6.89351 -6.87875,-6.22508 -7.62024,-4.21232 -1.13224,3.06922 l 6.07233,6.81738 2.97666,-7.07896 c 3.24807,-7.72501 3.97532,-17.85659 1.28126,-17.83963 z m -0.36753,26.79267 c -1.11988,-0.15427 -0.66673,1.18073 2.28789,4.13536 1.80661,1.80644 0.20275,2.48334 -5.87365,2.48334 -4.59545,0 -9.43313,1.08276 -10.75423,2.40368 -1.69727,1.69727 -0.017,2.01411 5.74804,1.07953 9.40431,-1.52605 18.07221,0.20122 22.34929,4.4566 1.63929,1.63115 5.01535,4.14129 7.49938,5.57563 7.2639,4.19418 7.2639,3.15229 0,-2.9831 -3.72596,-3.14721 -10.07834,-8.70284 -14.11487,-12.34674 -3.33011,-3.0065 -6.02198,-4.65019 -7.14185,-4.8043 z m 13.13485,32.42798 c 0.84999,-0.017 2.09649,0.61859 4.1123,1.8773 4.73411,2.95666 4.66715,3.12415 -3.907,9.42975 -4.80057,3.53032 -9.04934,8.65332 -9.43975,11.38655 -0.39059,2.73323 -2.48844,5.31048 -4.6619,5.7248 -7.03539,1.34093 -4.74072,-9.34294 3.59237,-16.72061 4.14993,-3.67407 8.00846,-8.0627 8.5723,-9.7542 0.42872,-1.28652 0.88151,-1.93392 1.73168,-1.94359 z"
       id="rect3535"
       sodipodi:nodetypes="csscccsccssscsscccccscsscssccscsssscssscccccsscccsscsccssssssccsscscccssccccsssscccssssscscsccscsccccccccccsssscccsccssscscccccccccccssccccsccccscccccccsccccccccccccscc" />
    <path
       style="opacity:1;fill:#e6e6e6;fill-opacity:1;stroke:#e6e6e6;stroke-width:1;stroke-linecap:square;stroke-linejoin:miter;stroke-miterlimit:4;stroke-dasharray:none;stroke-dashoffset:0;stroke-opacity:1"
       d="m -438.93926,72.24946 0,110 18.15822,0 0,-41.49385 11.93042,0 c 11.00498,0 18.75857,-1.07549 23.26057,-3.22647 4.50206,-2.201 8.25375,-5.97771 11.25512,-11.33014 3.00136,-5.40247 4.50204,-12.0805 4.50204,-20.03412 0,-8.75398 -1.75079,-15.907227 -5.25238,-21.459757 -3.45158,-5.55253 -7.85357,-9.179169 -13.20601,-10.879949 -3.35148,-1.050469 -10.47979,-1.575714 -21.38472,-1.575714 l -29.26326,0 z m -76.60993,0.900412 0,109.099588 63.47891,0 0,-18.53343 -45.3206,0 0,-90.566158 -18.15831,0 z m 94.76815,17.708049 8.85402,0 c 7.60343,0 12.5807,0.42519 14.93177,1.27558 2.35106,0.85039 4.32699,2.526148 5.92773,5.027287 1.60072,2.501137 2.40108,5.577532 2.40108,9.229192 0,3.60164 -0.77534,6.65303 -2.32604,9.15417 -1.5507,2.4511 -3.55165,4.15188 -6.00277,5.10232 -2.40109,0.95042 -6.97816,1.42564 -13.73125,1.42564 l -10.05454,0 0,-31.214189 z"
       id="rect3367"
       inkscape:connector-curvature="0" />
  </g>
</svg>
